# xmcd
#
# Track frame offsets:
#	150
#	5463
#	25055
#	42761
#	63414
#	73423
#	92545
#	112895
#	130877
#	149277
#	171908
#	188681
#	211600
#	229421
#	253794
#	279376
#	300386
#
# Disc length: 4253 seconds
#
# Revision: 0
# Processed by: cddbd v1.4PL0 Copyright (c) Steve Scherf et al.
# Submitted via: dBpowerAMP V4.0
#
DISCID=e6109b11
DTITLE=Faze - Käes On Aeg...
DYEAR=2003
DGENRE=Rap
TTITLE0=Intro
TTITLE1=Kõigile (feat. One Shot)
TTITLE2=Elu möödub
TTITLE3=Õrnalt
TTITLE4=Jammime
TTITLE5=Kinni
TTITLE6=Meil on hea olla
TTITLE7=Käes on aeg (feat. Maris)
TTITLE8=Suvi
TTITLE9=Õnnetuna
TTITLE10=Elu läheb edasi
TTITLE11=Miks
TTITLE12=Üks võimalus
TTITLE13=Ingel
TTITLE14=Tõsine maailm
TTITLE15=Kõigile (Remix feat. One Shot)
TTITLE16=Lõpetama jääb vaikus
EXTD=
EXTT0=
EXTT1=
EXTT2=
EXTT3=
EXTT4=
EXTT5=
EXTT6=
EXTT7=
EXTT8=
EXTT9=
EXTT10=
EXTT11=
EXTT12=
EXTT13=
EXTT14=
EXTT15=
EXTT16=
PLAYORDER=
